<svg xmlns="http://www.w3.org/2000/svg" width="24" height="24" fill="none"><path fill="#FBBB00" d="m5.47 14.528-.785 2.915-2.873.061A11.178 11.178 0 0 1 1.73 7.03l2.558.467 1.12 2.524a6.653 6.653 0 0 0 .064 4.508v-.001Z"/><path fill="#518EF8" d="M22.853 10.092c.382 2 .21 4.066-.5 5.977a11.22 11.22 0 0 1-3.526 4.867l-3.222-.164-.456-2.827a6.697 6.697 0 0 0 2.895-3.414h-6.038v-4.438h10.847Z"/><path fill="#28B446" d="M18.827 20.936a11.323 11.323 0 0 1-4.407 2.155 11.365 11.365 0 0 1-9.397-1.896 11.238 11.238 0 0 1-3.211-3.69l3.659-2.976c.344.91.883 1.734 1.58 2.415a6.724 6.724 0 0 0 2.46 1.527 6.758 6.758 0 0 0 5.637-.526l3.679 2.99Z"/><path fill="#F14336" d="m18.966 3.553-3.659 2.975a6.744 6.744 0 0 0-5.797-.623 6.72 6.72 0 0 0-2.524 1.593 6.664 6.664 0 0 0-1.578 2.523L1.729 7.03a11.237 11.237 0 0 1 3.224-3.795 11.328 11.328 0 0 1 4.557-2.04 11.365 11.365 0 0 1 4.997.113 11.32 11.32 0 0 1 4.459 2.245Z"/></svg>