<svg xmlns="http://www.w3.org/2000/svg" viewBox="0 0 500 500"><g id="freepik--Floor--inject-23"><ellipse id="freepik--floor--inject-23" cx="249.95" cy="358.24" rx="239.7" ry="133.67" style="fill:#fafafa"></ellipse></g><g id="freepik--Plants--inject-23"><g id="freepik--plants--inject-23"><path d="M32.36,310.35c2.91,5.11,7.27,12.14,11.37,19.75,6.13,11.39,11.67,24.06,10.83,33.42l0,.94h0l.72,14.38.09,1.95,3.4-2L67.17,374c2.35-13.36,3.75-26.57.21-46.94-3.28-18.79-16.44-39.44-27.53-40.56C29.51,285.45,25.09,297.61,32.36,310.35Z" style="fill:#0BA6C9"></path><path d="M32.36,310.35c2.91,5.11,7.27,12.14,11.37,19.75,6.13,11.39,11.67,24.06,10.83,33.42l0,.94h0l.72,14.38.09,1.95,3.4-2L67.17,374c2.35-13.36,3.75-26.57.21-46.94-3.28-18.79-16.44-39.44-27.53-40.56C29.51,285.45,25.09,297.61,32.36,310.35Z" style="fill:#fff;opacity:0.25"></path><path d="M62.57,373.47a.67.67,0,0,1-.41-.69c4.34-34.8-10-66.89-24.55-78.5a.66.66,0,0,1-.1-.93.65.65,0,0,1,.93-.11c14.8,11.8,29.44,44.42,25,79.7a.67.67,0,0,1-.74.58Z" style="fill:#fff"></path><path d="M19.61,332.38C20.76,339.12,33,347.05,41.1,358c7.31,9.87,10.5,19.87,10.23,25.19h0l4.07-2.35,3.4-2c1.86-24.68-5.53-40.74-15.09-48.74a27.55,27.55,0,0,0-7.3-4.43C25.68,321.37,18.24,324.29,19.61,332.38Z" style="fill:#0BA6C9"></path><path d="M19.61,332.38C20.76,339.12,33,347.05,41.1,358c7.31,9.87,10.5,19.87,10.23,25.19h0l4.07-2.35,3.4-2c1.86-24.68-5.53-40.74-15.09-48.74a27.55,27.55,0,0,0-7.3-4.43C25.68,321.37,18.24,324.29,19.61,332.38Z" style="fill:#fff;opacity:0.6000000000000001"></path><path d="M55.17,378.8a.66.66,0,0,1-.4-.6c-.42-28.28-16.62-43.68-25.13-47.88a.66.66,0,0,1,.59-1.19c9.41,4.64,25.44,20.19,25.87,49.05a.67.67,0,0,1-.66.67A.81.81,0,0,1,55.17,378.8Z" style="fill:#fff"></path></g></g><g id="freepik--Shadows--inject-23"><path id="freepik--Shadow--inject-23" d="M421.62,390.78l-94.31,54.45c-10.34,6-27.11,6-37.46,0l-32.81-19c-10.35-6-10.35-15.65,0-21.63l94.31-54.45c10.34-6,27.11-6,37.45,0l32.82,18.95C432,375.12,432,384.81,421.62,390.78Z" style="fill:#ebebeb"></path><ellipse id="freepik--shadow--inject-23" cx="118.59" cy="401.61" rx="76.03" ry="43.9" style="fill:#ebebeb"></ellipse></g><g id="freepik--Icons--inject-23"><g id="freepik--Heart--inject-23"><path d="M360.66,88.58a.53.53,0,0,1-.24-.06l-5.5-2.94h0c-4.15-2.22-15.16-8.12-16-18.67a10.29,10.29,0,0,1,19.66-5,10.38,10.38,0,0,1,9.17-7.65,10.26,10.26,0,0,1,11,9.47c.84,10.55-9.12,18.14-12.87,21l-5,3.79A.47.47,0,0,1,360.66,88.58Zm-5.27-3.88,5.22,2.79,4.72-3.59c3.63-2.77,13.27-10.11,12.48-20.12a9.29,9.29,0,0,0-3.25-6.38,9.13,9.13,0,0,0-6.72-2.17,9.35,9.35,0,0,0-8.58,8.83.5.5,0,0,1-.46.47.48.48,0,0,1-.52-.39,9.3,9.3,0,0,0-18.36,2.69c.79,10,11.46,15.72,15.47,17.87l-.23.44Z" style="fill:#e0e0e0"></path></g><path id="freepik--musical-note--inject-23" d="M279.57,39.77l-5.71,17a4.39,4.39,0,0,0-1.37-.62,4.75,4.75,0,0,0-5.7,2.88,4,4,0,0,0,3,5.16,4.75,4.75,0,0,0,5.7-2.89l4.64-13.76,16.22.29h0l-4.57,13.65a4.39,4.39,0,0,0-1.37-.62,4.75,4.75,0,0,0-5.7,2.88,4,4,0,0,0,3,5.16,4.77,4.77,0,0,0,5.7-2.89h0l8.17-24.47Z" style="fill:#e0e0e0"></path><path id="freepik--Phone--inject-23" d="M426,49.73c-.7-.64-1.44-1.22-2.16-1.81-1.45-1.18-2.78-1.27-3.86.63a1.57,1.57,0,0,1-2.35.64,11.31,11.31,0,0,1-5.46-6.14c-.49-1.28-.48-2.42.67-3.32A2.41,2.41,0,0,0,414,37.65c-.07-1.36-2.92-5.89-4.05-6.37a1.75,1.75,0,0,0-1.4,0c-2.65,1-3.74,3.53-2.69,6.5,3.13,8.87,8,13.51,15.55,17.28a8,8,0,0,0,1.16.38c1.72,0,4.4-.37,5-2.28s-.63-2.56-1.56-3.43Z" style="fill:#e0e0e0"></path><g id="freepik--Gear--inject-23"><path d="M213.88,80.09h0a20.42,20.42,0,0,1-3.27-.4,19.61,19.61,0,0,1-3.17-.92,1,1,0,0,1-.65-1.19l.55-2.71a16.61,16.61,0,0,1-3.72-2.5l-2.29,1.52a1.05,1.05,0,0,1-1.35-.16,20,20,0,0,1-3.64-5.48,1.07,1.07,0,0,1,.39-1.31l2.3-1.52a16.9,16.9,0,0,1-.86-4.4l-2.7-.55a1,1,0,0,1-.84-1.06,21.25,21.25,0,0,1,.38-3.29A20.44,20.44,0,0,1,195.9,53a1,1,0,0,1,1.2-.65l2.7.55a16.11,16.11,0,0,1,2.51-3.72l-1.53-2.3a1.06,1.06,0,0,1,.16-1.35,20,20,0,0,1,5.48-3.63,1.06,1.06,0,0,1,1.31.39l1.52,2.29a16.25,16.25,0,0,1,4.4-.85l.55-2.7a1,1,0,0,1,1.07-.85,19.34,19.34,0,0,1,3.27.4,20.33,20.33,0,0,1,3.17.91,1.06,1.06,0,0,1,.65,1.2l-.55,2.7a16.32,16.32,0,0,1,3.72,2.51l2.29-1.52a1.06,1.06,0,0,1,1.36.16A20.13,20.13,0,0,1,232.81,52a1.06,1.06,0,0,1-.39,1.31l-2.3,1.52a16.26,16.26,0,0,1,.86,4.41l2.7.55a1.05,1.05,0,0,1,.85,1.06,20.42,20.42,0,0,1-.4,3.27,20.86,20.86,0,0,1-.92,3.17,1,1,0,0,1-1.2.66h0l-2.69-.55a16.7,16.7,0,0,1-2.51,3.71l1.52,2.3a1.05,1.05,0,0,1-.16,1.35,19.81,19.81,0,0,1-5.48,3.63,1.06,1.06,0,0,1-1.31-.38l-1.52-2.3a16.34,16.34,0,0,1-4.4.85l-.55,2.71A1.06,1.06,0,0,1,213.88,80.09Zm-10.25-8.86a.52.52,0,0,1,.35.14,15.31,15.31,0,0,0,4.1,2.76.5.5,0,0,1,.28.56l-.63,3.09a15,15,0,0,0,3,.93,19.7,19.7,0,0,0,3.11.38l.68-3.14a.5.5,0,0,1,.47-.4,15.31,15.31,0,0,0,4.86-.94.5.5,0,0,1,.59.19l1.74,2.63A17.68,17.68,0,0,0,227.49,74l-1.73-2.69a.5.5,0,0,1,.05-.62,15.42,15.42,0,0,0,2.77-4.1.51.51,0,0,1,.55-.28l3.08.63a.08.08,0,0,0,.07,0,20.35,20.35,0,0,0,.87-3,19.58,19.58,0,0,0,.38-3.1l-3.13-.68a.5.5,0,0,1-.4-.48,15.65,15.65,0,0,0-.95-4.86.5.5,0,0,1,.19-.59l2.63-1.73a17.6,17.6,0,0,0-3.42-5.27l-2.7,1.73a.48.48,0,0,1-.61,0A15.17,15.17,0,0,0,221,46.09a.49.49,0,0,1-.28-.55l.63-3.09a15.5,15.5,0,0,0-3-.94,19.54,19.54,0,0,0-3.11-.37l-.68,3.14a.49.49,0,0,1-.47.4,15,15,0,0,0-4.86.94.52.52,0,0,1-.59-.2L206.9,42.8a17.7,17.7,0,0,0-5.28,3.42l1.74,2.69a.51.51,0,0,1-.06.62,15.75,15.75,0,0,0-2.77,4.1.49.49,0,0,1-.55.28l-3.08-.62a15,15,0,0,0-1,3,19.11,19.11,0,0,0-.36,3.12l3.13.68a.5.5,0,0,1,.4.47,15.41,15.41,0,0,0,.94,4.85.52.52,0,0,1-.19.6l-2.63,1.74a17.75,17.75,0,0,0,3.43,5.27l2.69-1.73A.46.46,0,0,1,203.63,71.23Zm11.06-1.49a9.67,9.67,0,0,1-8.16-4.32,9.77,9.77,0,0,1,0-10.63,9.15,9.15,0,0,1,6.32-4.19,9.7,9.7,0,0,1,9.82,14.83,9.17,9.17,0,0,1-6.33,4.19h0A11,11,0,0,1,214.69,69.74Zm-.27-18.26a10.36,10.36,0,0,0-1.46.11,8.11,8.11,0,0,0-5.62,3.72,8.69,8.69,0,0,0,8.81,13.32h0a8.11,8.11,0,0,0,5.62-3.72,8.79,8.79,0,0,0,0-9.56A8.69,8.69,0,0,0,214.42,51.48Z" style="fill:#e0e0e0"></path></g></g><g id="freepik--Character--inject-23"><g id="freepik--Chartacter--inject-23"><g id="freepik--Bottom--inject-23"><polygon points="137.59 389.52 144.15 387.02 141.98 382.58 137.96 386.36 137.59 389.52"></polygon><path d="M130.75,377.7s-.24,4.28-.29,5.63,5.71,5.5,7.13,6.19l.37-3.16c1.23,1.23,2,2.79,3.31,5.09,1.11,1.91,2.54,5.54,5.59,8,4.53,3.66,11.57,5.49,18.74,5.72s11.28-1.56,13.31-3.12,2.67-3.39,2.15-5.21S130.75,377.7,130.75,377.7Z" style="fill:#263238"></path><path d="M149.87,363l.07-2.48c1.32-.05,1.5,3.55,3.44,6.69,2.62,4.22,6.46,9.52,10.16,12.86,7.3,6.59,13.81,10.72,17.07,13.69,4.36,4-3.24,10.35-15,9.75-5.81-.29-16.14-3.17-19.06-6.59s-4.72-8.76-7.06-11.24-7.33-5-8.79-8c-.8-1.66-.4-5.54.06-8.84.42-3,.49-7.68,2.19-7.31l.13,1.56c.71,1.32,2.33,3.5,7,4.27C142.49,367.76,149.47,367.94,149.87,363Z" style="fill:#37474f"></path><path d="M143.91,367.48c2.24-.2,4.64-1,5.57-3,0,0,0,0,0-.07a5.68,5.68,0,0,0,1.53,4.76c2.11,2.44,15.41,19.65,15.41,19.65S154.09,374.66,151.72,372c-3.51-3.95-4.62-4.41-7.82-4.5Z" style="opacity:0.15"></path><path d="M146.86,372.05a.72.72,0,0,1-.79.63.7.7,0,0,1-.63-.78.71.71,0,1,1,1.42.15Z" style="opacity:0.15"></path><path d="M150.33,375.85a.71.71,0,1,1-.63-.79A.72.72,0,0,1,150.33,375.85Z" style="opacity:0.15"></path><path d="M153.8,379.65a.71.71,0,1,1-.63-.79A.72.72,0,0,1,153.8,379.65Z" style="opacity:0.15"></path><path d="M157.28,383.45a.72.72,0,1,1-.64-.78A.72.72,0,0,1,157.28,383.45Z" style="opacity:0.15"></path><path d="M160.75,387.26a.71.71,0,0,1-.79.63.7.7,0,0,1-.63-.78.71.71,0,1,1,1.42.15Z" style="opacity:0.15"></path><path d="M146.13,372.26a.34.34,0,0,1-.19-.09.28.28,0,0,1,0-.4c.15-.15,3.58-3.48,8.08-3.24h0a.28.28,0,0,1,.26.3.28.28,0,0,1-.3.27c-4.25-.22-7.61,3-7.64,3.08A.3.3,0,0,1,146.13,372.26Z" style="fill:#263238"></path><path d="M149.6,376.05a.31.31,0,0,1-.18-.09.28.28,0,0,1,0-.4c.14-.15,3.57-3.48,8.08-3.25h0a.29.29,0,1,1,0,.57c-4.25-.23-7.61,3-7.65,3.07A.27.27,0,0,1,149.6,376.05Z" style="fill:#263238"></path><path d="M153.07,379.86a.25.25,0,0,1-.18-.08.3.3,0,0,1,0-.41c.14-.14,3.57-3.48,8.08-3.24h0a.29.29,0,0,1,.27.3.3.3,0,0,1-.3.28c-4.25-.23-7.61,3-7.64,3.07A.3.3,0,0,1,153.07,379.86Z" style="fill:#263238"></path><path d="M156.54,383.67a.34.34,0,0,1-.18-.09.3.3,0,0,1,0-.41c.15-.14,3.57-3.48,8.08-3.24h0a.29.29,0,0,1,0,.58c-4.25-.23-7.61,3-7.64,3.07A.33.33,0,0,1,156.54,383.67Z" style="fill:#263238"></path><path d="M160,387.47a.34.34,0,0,1-.19-.09.28.28,0,0,1,0-.4c.14-.15,3.57-3.48,8.07-3.25h0a.29.29,0,1,1,0,.57c-4.24-.23-7.61,3-7.64,3.08A.3.3,0,0,1,160,387.47Z" style="fill:#263238"></path><path d="M84.84,408.22c-1,5.6-2.32,9.23-4.71,12.3s-6.69,3.41-9.88,2.74c-4.49-.94-8.9-4.06-10.62-10.47-1-3.86-.32-8.29,1.17-13.41Z" style="fill:#263238"></path><path d="M72.38,365.24c-1.59-.06-3,7.45-4.77,14.92-1.93,8-5,12.25-6.42,17.63-2,7.45-1.9,10.93.22,15.84S74.54,424.55,80,418.52c4.43-4.92,5.29-10.86,5.85-18.49.58-7.9.92-13.46,2-19.38,1-5.65,2-11.13.75-11.92-.21.82-.44,1.87-.65,2.68-.16.62-.68,3.68-1.57,3.61a12,12,0,0,1,.24-2.15,2.56,2.56,0,0,0-.21-1.89,3.07,3.07,0,0,0-1.66-1,45.2,45.2,0,0,0-4.59-1.28c-.77-.16-1.56-.29-2.35-.38a27.49,27.49,0,0,0-4.14-.32,1.43,1.43,0,0,0-.94.67,2.34,2.34,0,0,0-.19.86,6.2,6.2,0,0,1-.38,1.54c-.09.22-.27.48-.49.39s-.23-.3-.21-.49c.11-.92.3-1.57.47-2.63.08-.49.24-1.16.31-1.65S72.29,365.73,72.38,365.24Z" style="fill:#37474f"></path><path d="M66.74,400.35a.55.55,0,1,0,.66-.42A.55.55,0,0,0,66.74,400.35Z" style="opacity:0.15"></path><path d="M67.89,395.17a.55.55,0,0,0,.42.66.56.56,0,0,0,.66-.42.55.55,0,1,0-1.08-.24Z" style="opacity:0.15"></path><path d="M69,390.27a.55.55,0,1,0,.66-.42A.55.55,0,0,0,69,390.27Z" style="opacity:0.15"></path><path d="M70.05,385.45a.55.55,0,0,0,.42.66.56.56,0,0,0,.66-.42.55.55,0,1,0-1.08-.24Z" style="opacity:0.15"></path><path d="M82.41,387.71a.55.55,0,1,0,.66-.43A.56.56,0,0,0,82.41,387.71Z" style="opacity:0.15"></path><path d="M81.33,392.56a.57.57,0,0,0,.42.67.56.56,0,0,0,.24-1.09A.57.57,0,0,0,81.33,392.56Z" style="opacity:0.15"></path><path d="M80.24,397.46a.56.56,0,0,0,.43.66.55.55,0,0,0,.66-.42.56.56,0,0,0-1.09-.24Z" style="opacity:0.15"></path><path d="M79.09,402.65a.55.55,0,1,0,.66-.42A.55.55,0,0,0,79.09,402.65Z" style="opacity:0.15"></path><polygon points="74.17 404.57 82.75 368.45 80.73 368.16 74.17 404.57" style="opacity:0.15"></polygon><path d="M67.22,400.75h.09c3.73-.37,9.89.74,12.18,2.22a.28.28,0,0,0,.39-.09.28.28,0,0,0-.09-.38c-2.42-1.57-8.64-2.7-12.54-2.31a.29.29,0,0,0-.25.31A.28.28,0,0,0,67.22,400.75Z" style="fill:#263238"></path><path d="M68.37,395.56a.26.26,0,0,0,.15,0c2.93-1,9.5.55,12.12,2.23a.28.28,0,0,0,.39-.08.29.29,0,0,0-.08-.39c-2.73-1.76-9.52-3.33-12.61-2.29a.28.28,0,0,0-.18.36A.31.31,0,0,0,68.37,395.56Z" style="fill:#263238"></path><path d="M69.46,390.67a.26.26,0,0,0,.15,0c2.93-1,9.5.54,12.12,2.23a.27.27,0,0,0,.39-.09.28.28,0,0,0-.09-.38c-2.72-1.77-9.51-3.33-12.6-2.29a.27.27,0,0,0-.18.35A.29.29,0,0,0,69.46,390.67Z" style="fill:#263238"></path><path d="M70.53,385.84a.26.26,0,0,0,.15,0c2.93-1,9.5.55,12.12,2.23a.28.28,0,0,0,.39-.08.29.29,0,0,0-.08-.39c-2.73-1.76-9.52-3.33-12.61-2.29a.28.28,0,0,0-.18.36A.31.31,0,0,0,70.53,385.84Z" style="fill:#263238"></path><path d="M80,190.11C76.33,236.66,74.08,300,74.08,300c-.33,3.54-2.83,9.59-4.54,27-1.8,18.4-3.26,52.85-3.26,52.85s12.87,6.92,23.29,3.45c0,0,10.28-49,15.62-70.68,5.06-20.52,13-59.41,13-59.41l5.4,38.48s-.72,13.27-.33,22.55c.46,10.8,7.35,55.61,7.35,55.61s14,8.24,24.82-.05c0,0,1.88-64.49,2.18-77.48.6-25.48-2.38-74.86-3.31-107.75Z" style="fill:#263238"></path><path d="M98.93,243.68q-1.46,16.74-3.25,33.44-.89,8.36-1.83,16.7l-.95,8.34-.49,4.17c-.15,1.39-.44,2.77-.65,4.15Q89,327,86,343.57t-6.41,33q2.16-16.65,4.77-33.23t5.42-33.13c.22-1.38.51-2.75.67-4.14l.51-4.16L92,293.56q1.06-8.32,2.17-16.64Q96.4,260.28,98.93,243.68Z"></path><path d="M150.49,240.52c1.16,10.41,1.78,20.87,2.23,31.33s.86,20.95.46,31.41c-.25,10.46-.52,20.92-.91,31.38s-.87,20.92-1.49,31.37q-.25-15.7-.1-31.39c.07-10.46.26-20.92.47-31.38l.2-7.84.05-2,0-1.94,0-3.92-.19-15.69-.26-15.68C150.82,251,150.66,245.75,150.49,240.52Z"></path><path d="M118.16,253.28l4.55-25.5s12.64-1.84,19.11-7.65c0,0-4.18,7.69-16.09,10.7l-4.52,22.52,2.35,38.41Z"></path></g><g id="freepik--Top--inject-23"><path d="M185,155.86c-.85-.67-2.83.57-5.5,2.32a5.29,5.29,0,0,0-2.32,3.91,7.1,7.1,0,0,0,4.41-1.64A12.52,12.52,0,0,0,185,155.86Z" style="fill:#263238"></path><path d="M187.24,174.34c-.84-.43-1.11-.87.3-1.8s6-3.22,6-3.22l.72,1.89S188.75,175,187.24,174.34Z"></path><path d="M140.9,99.2c6.92.16,7.91,1.89,17.66,7.74,6.42,3.86,47.39,30.21,52.67,34.37,4.25,3.36-18,15.9-18.42,15.82S147.08,134,147.08,134Z" style="fill:#ffa8a7"></path><path d="M134.79,96.78c10.39-.32,16.14,3,26.73,10.35s27.93,19.18,31.44,21,8,.63,8.83,6.21c-9.73.3-18.31,14.36-17.53,18.57-.72,1.23-2.76,1.16-8.82-2.1-6.91-3.72-37.71-18.16-37.71-18.16Z" style="fill:#f0f0f0"></path><path d="M187.31,165.55c-1.18-1.47-4-5.14-6.35-4.6-3.64.86-5.46,1.93-11,3.46-4,1.1-8.85,2.65-10,3.63-2.94,2.51-3.38,10.11-2.94,13.44s3.66,2.48,3.66,2.48c.19.69.77,2.23,3.47,2.15,0,1,1.31,2.41,3.7,2.34.1,1.12,2.11,1.84,3.61,1.45,2.06-.54,4.54-3,5.92-3.78s2-1.14,2.17-1.79c.19-.88-.64-1.93-2.28-2.06a10.2,10.2,0,0,0,5.49-2.3,21.67,21.67,0,0,0,3.26-4,10.36,10.36,0,0,1,2.82-3.16c2.13-1.71,0-5.18-1.24-6.84C187.53,165.82,187.42,165.68,187.31,165.55Z" style="fill:#ffa8a7"></path><path d="M177.3,182.27a8.11,8.11,0,0,0-1.74.79,6.92,6.92,0,0,0-.74.57c-.23.22-.42.46-.68.7l-.13.12-.14-.1a6.39,6.39,0,0,0-2.92-.91,4.28,4.28,0,0,1,3.18.55l-.28,0a6.29,6.29,0,0,1,1.53-1.25A4.83,4.83,0,0,1,177.3,182.27Z" style="fill:#f28f8f"></path><path d="M172.85,186.85c.21-.48.46-.88.63-1.32a14.29,14.29,0,0,0,.52-1.36,2.16,2.16,0,0,1-.12,1.54A2.34,2.34,0,0,1,172.85,186.85Z" style="fill:#f28f8f"></path><path d="M167.88,188.45a10.27,10.27,0,0,1-.38-4.09,10.73,10.73,0,0,1,1.05-4,26.14,26.14,0,0,0-.61,4A23.78,23.78,0,0,0,167.88,188.45Z" style="fill:#f28f8f"></path><path d="M164.18,186.11a19.86,19.86,0,0,1-.3-4.93,16,16,0,0,1,1-4.83,38.36,38.36,0,0,0-.59,4.86C164.2,182.83,164.21,184.46,164.18,186.11Z" style="fill:#f28f8f"></path><path d="M160.71,184a14.25,14.25,0,0,1,.84-10,28.33,28.33,0,0,0-.89,4.94A31.31,31.31,0,0,0,160.71,184Z" style="fill:#f28f8f"></path><path d="M162.2,171.48a2.53,2.53,0,0,1,1.33-2,4.78,4.78,0,0,1,2.36-.49l-1.12.4a6,6,0,0,0-1,.45A3.7,3.7,0,0,0,162.2,171.48Z" style="fill:#f28f8f"></path><path d="M165.75,173.6a2.69,2.69,0,0,1,.4-1.15,2.88,2.88,0,0,1,.92-.85,4.79,4.79,0,0,1,2.37-.48l-1.12.39a6.66,6.66,0,0,0-1,.46A3.71,3.71,0,0,0,165.75,173.6Z" style="fill:#f28f8f"></path><path d="M170,176.47a2.73,2.73,0,0,1,.4-1.15,2.88,2.88,0,0,1,.92-.85,4.79,4.79,0,0,1,2.37-.48l-1.12.4a5.82,5.82,0,0,0-1,.45A3.71,3.71,0,0,0,170,176.47Z" style="fill:#f28f8f"></path><path d="M186.7,174.89c3.43-3.76,21.14-9.69,26.08-14.48,5.76-5.58,5.75-7.92,5.6-10.47-.15-2.79-2.86-5.22-7.91-9.23-3.23.76-9.13,3.85-15,7.83-6.57,4.45-13.82,12.41-19.24,13.88Z" style="fill:#ffa8a7"></path><path d="M186.29,151.34c-.55.45-1.47,1.1-2,1.53,1.26.64,2.48,1.25,3.51,1.75.79-.76,1.91-1.78,3-2.8,4.9-4.69,9.93-7.57,15.82-7.37C198.43,141.68,190.19,148.15,186.29,151.34Z" style="fill:#f28f8f"></path><path d="M192.87,158.29,188,155.68a3.9,3.9,0,0,0-3.55.11l-4.7,2.91a1.23,1.23,0,0,0-.7,1c0,.28,0,1.3,0,1.58a1.25,1.25,0,0,0,.76,1l4.87,2.61a3.93,3.93,0,0,0,3.55-.11l4.7-2.91a1.24,1.24,0,0,0,.7-1c0-.29,0-1.33-.05-1.6A1.23,1.23,0,0,0,192.87,158.29Z" style="fill:#37474f"></path><path d="M179.75,158.7l4.7-2.91a3.9,3.9,0,0,1,3.55-.11l4.87,2.61a1.08,1.08,0,0,1,.06,2.05l-4.7,2.91a3.9,3.9,0,0,1-3.55.11l-4.86-2.61A1.08,1.08,0,0,1,179.75,158.7Z" style="fill:#455a64"></path><path d="M186.45,163.22a3.17,3.17,0,0,1-1.53-.31l-4.86-2.62c-.31-.16-.49-.37-.5-.56s.16-.41.46-.6l4.7-2.9a3.12,3.12,0,0,1,1.51-.41,3.17,3.17,0,0,1,1.53.31l4.86,2.61c.31.17.5.38.5.57s-.16.41-.46.6l-4.7,2.9A3.12,3.12,0,0,1,186.45,163.22Z" style="fill:#263238"></path><path d="M184,163.89a.15.15,0,0,1-.09,0L180.46,162a.17.17,0,0,1-.07-.24.18.18,0,0,1,.24-.08l3.45,1.85a.18.18,0,0,1,.07.25A.16.16,0,0,1,184,163.89Z" style="fill:#455a64"></path><path d="M189.27,156.94l-1.58,1a.19.19,0,0,0-.09.14.22.22,0,0,0,.06.15l1.58,1.5-4.88-1.39a.18.18,0,0,0-.2.08.16.16,0,0,0,0,.21l1.85,2.08-1.8-.4a.16.16,0,0,0-.13,0l-1.86,1.15.37.2,1.62-1,2.27.5a.17.17,0,0,0,.19-.09.17.17,0,0,0,0-.21l-1.8-2,5,1.42a.17.17,0,0,0,.2-.09.18.18,0,0,0,0-.22l-1.95-1.85,1.56-1Z" style="fill:#0BA6C9"></path><path d="M188.46,163.88c.74.37,2.28,1.72,2.45,4.92s-1.85,5.48-3.67,5.54c.55.52,2.14.15,4.21-.91l1.72-.89a4.65,4.65,0,0,0,2.5-3.59,7.36,7.36,0,0,0,0-1.42c-.2-2.53-.68-4.45-2.8-6.39Z" style="fill:#263238"></path><path d="M201.79,134.3s9.26,4.47,7.78,5.78L208,139a42.59,42.59,0,0,0-11.25,5.9c-5,3.85-6,7-6,7l-3.27,3.08-3.65-2.25s-1.46-4.46,5-11.48C196.41,133,201.79,134.3,201.79,134.3Z" style="fill:#e0e0e0"></path><path d="M78.87,104.46s-8.15,6.75-4.3,23.32a242.25,242.25,0,0,1,5.16,32.82c.6,8.74-.38,38.19-.38,38.19,13.2,15.79,68.45,11.75,75.3-2.62,0,0,.78-57.8-4.22-77.59C147.6,107.37,142,100,137.75,96.79L120.6,95.17,103.54,95Z" style="fill:#e6e6e6"></path><path d="M105.29,219.64l-.18-.12c-2.38-1.5-4.59-3.27-6.9-4.88a16,16,0,0,0-2.8-1.49c-.93-.39-1.93-.54-2.9-.84s-2-.87-3.09-1.27a6.71,6.71,0,0,1-3.08-2,19.74,19.74,0,0,1-2.12-3.35A25.23,25.23,0,0,1,83,202.75q-7.7-.39-13.13,9.49c.58,1,1.12,1.91,1.59,2.67,3.91,6.34,3.48,12.57,9.7,19.15a19.14,19.14,0,0,0,12.46-7.23,17.44,17.44,0,0,0,2.24-4.13c0-.08-.63-1-.66-1.24-.08-.46.09-.64.55-.68a4.64,4.64,0,0,1,2.36.78,8.76,8.76,0,0,0,2.68,1.16,9.14,9.14,0,0,0,2.45.06c.87-.08,2.49-.27,3.12-.95C107.12,221,106,220.11,105.29,219.64Z" style="fill:#ffa8a7"></path><path d="M50.46,184.73C55,192,64.78,204,69.85,212.24S83,202.75,83,202.75c-4.16-11.85-7.65-24.44-7.65-24.44s-9.09-5.54-17.44-3.18S50.46,184.73,50.46,184.73Z" style="fill:#ffa8a7"></path><path d="M49.12,158.1c2-7.77,9.15-31.75,11.51-38.7,3.12-9.21,6.62-11.64,18.24-14.94,9.53,9.94,5.62,34.83,5.62,34.83s-8.27,26.16-8.68,27.92,0,3.15-1.77,4.59c-4.1-2-23.9-3.26-27.2.83C43.76,168.78,47.75,163.37,49.12,158.1Z" style="fill:#f0f0f0"></path><path d="M74,171.8c1.09.58.24,1.6.81,3.62S77,178.3,76,179.08a35.22,35.22,0,0,0-21.31,1.41c-4.95,1.85-4.2,4.24-4.2,4.24-1.54.61-2.87-1.69-3.05-4.49-.22-3.51-.94-6.23-.57-7.61C47.83,168.91,63,167.86,74,171.8Z" style="fill:#e0e0e0"></path><path d="M81.14,234.06a19.14,19.14,0,0,0,12.46-7.23,17.16,17.16,0,0,0,2.16-3.93c-.27.59-1.33,2.56-4.55,5.39-3.86,3.4-7.29,3.49-9.33,2.94s-4.27-2.65-5.62-4.71A24.77,24.77,0,0,0,81.14,234.06Z" style="fill:#f28f8f"></path><g id="freepik--Head--inject-23"><path d="M99.11,45.17s-3.68,0-6.38,4.5c-1.36,2.25-2.49,6.42,0,18.74a49,49,0,0,0,5,13.72,6,6,0,0,0,3.3,3l.36-9.32.07-6.5s4.51-5.42,5.26-10.05c1-5.95-.14-8.49-.14-8.49Z" style="fill:#37474f"></path><path d="M97.82,45.4c1.25-5.17,8.28-11,21.11-10.85,10.52.12,16.42,4.11,19.67,10.46s.35,14.11.35,14.11l-32.8-4.27Z" style="fill:#37474f"></path><path d="M101.14,47.15c-.11,1.88-1.25,3.91-4.26,5.62a8.2,8.2,0,0,0-4.48,6.65A8,8,0,0,1,97,54.49a19.26,19.26,0,0,0,4.16-2.64s-.43,2.43-4.6,5.35-3.4,8-3.4,8a7.58,7.58,0,0,1,3-5.76c3.14-2.44,6.9-3.44,7-7.31A6.46,6.46,0,0,0,101.14,47.15Z" style="fill:#e0e0e0"></path><path d="M92.7,78c3.52,2.11,7.11-1,7.11-1L99.3,96.2s.14,3.72,5.83,7.34c8.07,5.14,11.61,6.48,14.89,11.64,3.22-8.1,6.54-12.54,1.59-19.14l.26-4.38a30.28,30.28,0,0,0,5.8.18c4.31-.4,7.2-3.61,8.77-8.15,2.32-6.72,3.76-17.61,1.93-29.41a10,10,0,0,0-3.16-6c-8-7.09-17.78-2.89-25.09-.57a13.49,13.49,0,0,1-9-.61c2.32,2.91,3.35,5.64,2.61,18.86a8.2,8.2,0,0,1-2,2.28c-1.65,1.26-2.7-2.33-3.93-3.79a5.39,5.39,0,0,0-8.48,1.39A8.84,8.84,0,0,0,92.7,78Z" style="fill:#ffa8a7"></path><path d="M117.24,58.38l-4.84,1.74a2.7,2.7,0,0,1,1.6-3.37A2.51,2.51,0,0,1,117.24,58.38Z" style="fill:#37474f"></path><path d="M135.11,59.77,130.23,58a2.49,2.49,0,0,1,3.24-1.61A2.72,2.72,0,0,1,135.11,59.77Z" style="fill:#37474f"></path><path d="M114.21,63.34a2.1,2.1,0,1,0,2.15-2A2.09,2.09,0,0,0,114.21,63.34Z" style="fill:#263238"></path><path d="M129.82,63.56a2.1,2.1,0,1,0,4.19.12,2.08,2.08,0,0,0-2-2.15A1.91,1.91,0,0,0,129.82,63.56Z" style="fill:#263238"></path><path d="M122.18,59.18l.87,13.42,7.2-2.14A31.25,31.25,0,0,0,122.18,59.18Z" style="fill:#f28f8f"></path><path d="M103.69,64.9c.32,9.15,3.46,9.82,6.7,10.39,4.29.76,6.45-1.54,14.14-1.44,4.67.06,6.11,1.46,8.75,2.58,1.95.83,3.55.61,4.32-1.14a30.78,30.78,0,0,0,1.6-9.85,73.43,73.43,0,0,1-.57,15c-.69,4.29-2.3,7.94-4.7,9.92-3.32,2.75-10.2,3.8-18.78,1.79s-11.79-5.61-12.78-8.66c-3.24-9.9-1.86-14.55-3-16.43S103.69,64.9,103.69,64.9Z" style="fill:#37474f"></path><path d="M123.44,76.58c-4.39-.15-5.83.63-6.08,3.64-.36,4.3-.16,5.75,1.48,6,1.94.29,3.36.43,3.44-.79s.13-2.3-.25-2.76c-.67-.83-.43-1,1.5-.89s1.9.41,1.32,1c-.42.43-.4,1.91-.41,2.75s.19,1.3,3,1.07c2.42-.21,2-2.15,2-5.85C129.44,78.25,128.41,76.74,123.44,76.58Z" style="fill:#ffa8a7"></path><path d="M119.28,77.19l7.14,1.08a3.54,3.54,0,0,1-4,3.14A3.77,3.77,0,0,1,119.28,77.19Z" style="fill:#b16668"></path><path d="M120.2,78.29a4.15,4.15,0,0,0-.87.07,3.72,3.72,0,0,0,3.06,3,3.46,3.46,0,0,0,1.16,0A3.31,3.31,0,0,0,120.2,78.29Z" style="fill:#f28f8f"></path></g><path d="M123.5,114.51s3.18-6,3.2-8.35l-3.82-4L121.65,112Z" style="fill:#0BA6C9"></path><path d="M123.5,114.51s3.18-6,3.2-8.35l-3.82-4L121.65,112Z" style="opacity:0.2"></path><polygon points="118.28 112.37 111.78 107.91 106.33 111.54 116.31 116.7 118.28 112.37" style="fill:#0BA6C9"></polygon><polygon points="118.28 112.37 111.78 107.91 106.33 111.54 116.31 116.7 118.28 112.37" style="opacity:0.2"></polygon><path d="M116.44,172.83c.61-21,2.56-47.75,2.19-52.86l3.57-.33a194.34,194.34,0,0,1,11.93,52.65c.14,4.76-4.29,15.16-7.7,15.27S116.35,175.91,116.44,172.83Z" style="fill:#0BA6C9"></path><path d="M116.44,172.83c.61-21,2.56-47.75,2.19-52.86l3.57-.33a194.34,194.34,0,0,1,11.93,52.65c.14,4.76-4.29,15.16-7.7,15.27S116.35,175.91,116.44,172.83Z" style="fill:#fff;opacity:0.1"></path><path d="M122.51,120.38c-.11-.25-.21-.5-.3-.74h0l-3.57.33h0c0,.43.05,1,.05,1.6A6.31,6.31,0,0,0,122.51,120.38Z" style="opacity:0.5"></path><path d="M118.19,111.88a15.21,15.21,0,0,1,3.37-.13,8.11,8.11,0,0,1,1.94,2.76,12.24,12.24,0,0,1-1.3,5.13,4.3,4.3,0,0,1-3.57.33,7.52,7.52,0,0,1-2.55-3.45A6.8,6.8,0,0,1,118.19,111.88Z" style="fill:#0BA6C9"></path><path d="M118.19,111.88a15.21,15.21,0,0,1,3.37-.13,8.11,8.11,0,0,1,1.94,2.76,12.24,12.24,0,0,1-1.3,5.13,4.3,4.3,0,0,1-3.57.33,7.52,7.52,0,0,1-2.55-3.45A6.8,6.8,0,0,1,118.19,111.88Z" style="fill:#fff;opacity:0.1"></path><path d="M118.26,111.87c-.11,0-.27.27-.38.28-2.47-1.36-2.86-1.82-3.52-1.64-1.26.34-4.26,5.51-5,7.18s-.62,1.66-2.9.11a40.79,40.79,0,0,1-10.28-10.15,30.43,30.43,0,0,1-4-8.3s2.66-3.58,3.44-4.95c1.52-2.65,2.36-3.71,3.87-3.47v1.73c.23,2.33,2.63,4.58,5.85,7.42s8.44,5.58,9.67,6.79A24.56,24.56,0,0,1,118.26,111.87Z" style="fill:#f5f5f5"></path><path d="M130.05,114c-.38.94-3.31-6.51-4.79-6.37-.72.05-2.34,2.05-3.7,4.15l-1,0a23,23,0,0,0,1.6-5.63c.33-2.53-.59-10-.59-10l.22-2.92c.4,0,.81,0,1.31.06a10.32,10.32,0,0,1,1.26,1.74c1.43,2.39,5.13,7.91,5.58,10.75A25.15,25.15,0,0,1,130.05,114Z" style="fill:#f5f5f5"></path></g></g></g></svg>