<svg xmlns="http://www.w3.org/2000/svg" viewBox="0 0 500 500"><g id="freepik--background-complete--inject-34"><rect y="382.4" width="500" height="0.25" style="fill:#ebebeb"></rect><rect x="400.67" y="393.04" width="33.12" height="0.25" style="fill:#ebebeb"></rect><rect x="304.38" y="392.92" width="8.69" height="0.25" style="fill:#ebebeb"></rect><rect x="430.71" y="398.49" width="19.19" height="0.25" style="fill:#ebebeb"></rect><rect x="71.41" y="401.81" width="43.19" height="0.25" style="fill:#ebebeb"></rect><rect x="104.56" y="390.89" width="6.33" height="0.25" style="fill:#ebebeb"></rect><rect x="187.55" y="391.96" width="60.9" height="0.25" style="fill:#ebebeb"></rect><path d="M237,337.8H43.91a5.71,5.71,0,0,1-5.7-5.71V60.66A5.71,5.71,0,0,1,43.91,55H237a5.71,5.71,0,0,1,5.71,5.71V332.09A5.71,5.71,0,0,1,237,337.8ZM43.91,55.2a5.46,5.46,0,0,0-5.45,5.46V332.09a5.46,5.46,0,0,0,5.45,5.46H237a5.47,5.47,0,0,0,5.46-5.46V60.66A5.47,5.47,0,0,0,237,55.2Z" style="fill:#ebebeb"></path><path d="M453.31,337.8H260.21a5.72,5.72,0,0,1-5.71-5.71V60.66A5.72,5.72,0,0,1,260.21,55h193.1A5.71,5.71,0,0,1,459,60.66V332.09A5.71,5.71,0,0,1,453.31,337.8ZM260.21,55.2a5.47,5.47,0,0,0-5.46,5.46V332.09a5.47,5.47,0,0,0,5.46,5.46h193.1a5.47,5.47,0,0,0,5.46-5.46V60.66a5.47,5.47,0,0,0-5.46-5.46Z" style="fill:#ebebeb"></path><rect x="71.11" y="96.33" width="357.78" height="148.89" style="fill:#f0f0f0"></rect><rect x="182.56" y="-1.11" width="134.89" height="343.78" transform="translate(420.78 -79.22) rotate(90)" style="fill:#fafafa"></rect><polygon points="123.37 238.22 158.63 103.33 184.63 103.33 149.37 238.22 123.37 238.22" style="fill:#fff"></polygon><polygon points="155.37 238.22 190.63 103.33 202.26 103.33 167 238.22 155.37 238.22" style="fill:#fff"></polygon><polygon points="212.27 238.22 247.54 103.33 273.54 103.33 238.27 238.22 212.27 238.22" style="fill:#fff"></polygon><polygon points="277.83 238.22 313.09 103.33 324.73 103.33 289.46 238.22 277.83 238.22" style="fill:#fff"></polygon><rect x="101.88" y="169.89" width="134.89" height="1.78" transform="translate(340.1 1.46) rotate(90)" style="fill:#e0e0e0"></rect><rect x="11.56" y="169.89" width="134.89" height="1.78" transform="translate(249.78 91.78) rotate(90)" style="fill:#e0e0e0"></rect><rect x="97.49" y="167.28" width="134.89" height="7" transform="translate(335.71 5.85) rotate(90)" style="fill:#f0f0f0"></rect><rect x="188.67" y="169.89" width="134.89" height="1.78" transform="translate(426.89 -85.33) rotate(90)" style="fill:#e0e0e0"></rect><rect x="184.28" y="167.28" width="134.89" height="7" transform="translate(422.5 -80.94) rotate(90)" style="fill:#f0f0f0"></rect><rect x="275.5" y="169.89" width="134.89" height="1.78" transform="translate(513.72 -172.17) rotate(90)" style="fill:#e0e0e0"></rect><rect x="271.11" y="167.28" width="134.89" height="7" transform="translate(509.33 -167.78) rotate(90)" style="fill:#f0f0f0"></rect><rect x="355.33" y="169.89" width="148.89" height="1.78" transform="translate(600.56 -259) rotate(90)" style="fill:#e0e0e0"></rect><path d="M434.67,86.11H65.33a1.56,1.56,0,0,1-1.55-1.55h0A1.56,1.56,0,0,1,65.33,83H434.67a1.56,1.56,0,0,1,1.55,1.56h0A1.56,1.56,0,0,1,434.67,86.11Z" style="fill:#e0e0e0"></path><g style="opacity:0.6000000000000001"><rect x="66.78" y="80" width="75.56" height="271.67" style="fill:#f5f5f5"></rect><polygon points="107.72 353.89 101.39 353.89 103.17 82.22 106 82.22 107.72 353.89" style="fill:#e6e6e6"></polygon><polygon points="86.75 353.89 83.69 353.89 84.55 82.22 85.92 82.22 86.75 353.89" style="fill:#e6e6e6"></polygon><polygon points="128.75 353.89 125.69 353.89 126.55 82.22 127.92 82.22 128.75 353.89" style="fill:#e6e6e6"></polygon></g><g style="opacity:0.6000000000000001"><rect x="356.76" y="80" width="75.56" height="271.67" style="fill:#f5f5f5"></rect><polygon points="386.37 353.89 380.04 353.89 381.82 82.22 384.65 82.22 386.37 353.89" style="fill:#e6e6e6"></polygon><polygon points="372.4 353.89 369.35 353.89 370.2 82.22 371.57 82.22 372.4 353.89" style="fill:#e6e6e6"></polygon><polygon points="404.73 353.89 401.68 353.89 402.54 82.22 403.9 82.22 404.73 353.89" style="fill:#e6e6e6"></polygon><polygon points="420.29 353.89 417.24 353.89 418.09 82.22 419.46 82.22 420.29 353.89" style="fill:#e6e6e6"></polygon></g><rect x="325.22" y="299.32" width="14.2" height="81.38" transform="translate(664.63 680.02) rotate(180)" style="fill:#e6e6e6"></rect><rect x="160.58" y="299.32" width="170.09" height="81.38" transform="translate(491.26 680.02) rotate(180)" style="fill:#f0f0f0"></rect><polygon points="326.86 380.7 321.74 380.7 167.93 380.7 167.93 382.4 321.74 382.4 326.86 382.4 332.07 382.4 332.07 380.7 326.86 380.7" style="fill:#e0e0e0"></polygon><rect x="165.43" y="304.41" width="160.39" height="32.84" transform="translate(491.26 641.66) rotate(180)" style="fill:#fafafa;opacity:0.5"></rect><rect x="165.43" y="342.55" width="160.39" height="32.84" transform="translate(491.26 717.94) rotate(180)" style="fill:#fafafa;opacity:0.5"></rect><path d="M189.75,320.83a3.61,3.61,0,1,1-3.61-3.61A3.61,3.61,0,0,1,189.75,320.83Z" style="fill:#e0e0e0"></path><path d="M308.73,320.83a3.61,3.61,0,1,1-3.61-3.61A3.61,3.61,0,0,1,308.73,320.83Z" style="fill:#e0e0e0"></path><circle cx="186.14" cy="358.97" r="3.61" style="fill:#e0e0e0"></circle><path d="M308.73,359a3.61,3.61,0,1,1-3.61-3.61A3.61,3.61,0,0,1,308.73,359Z" style="fill:#e0e0e0"></path><path d="M249.24,320.83a3.61,3.61,0,1,1-3.61-3.61A3.61,3.61,0,0,1,249.24,320.83Z" style="fill:#e0e0e0"></path><circle cx="245.63" cy="358.97" r="3.61" style="fill:#e0e0e0"></circle><path d="M320.16,285.5a13.82,13.82,0,0,1-27.64,0Z" style="fill:#f0f0f0"></path><path d="M210.89,283a16.29,16.29,0,0,1-32.58,0Z" style="fill:#f0f0f0"></path><path d="M280.92,289.73a9.59,9.59,0,1,1-19.18,0Z" style="fill:#f0f0f0"></path></g><g id="freepik--Shadow--inject-34"><ellipse id="freepik--path--inject-34" cx="250" cy="416.24" rx="193.89" ry="11.32" style="fill:#f5f5f5"></ellipse></g><g id="freepik--Hello--inject-34"><rect x="275.75" y="287.76" width="10.69" height="1" transform="translate(-20.1 21.07) rotate(-4.15)" style="fill:#19A0CB"></rect><rect x="290.77" y="286.87" width="5.25" height="1" transform="translate(-20.01 21.96) rotate(-4.15)" style="fill:#19A0CB"></rect><path d="M342,169.27,165.44,182a14,14,0,0,0-12.88,14.89l6,83.22A14,14,0,0,0,173.47,293l10-.72a2.75,2.75,0,0,1,2.94,2.54l1.12,15.42a1.5,1.5,0,0,0,2.64.88l16.74-19.35a4.07,4.07,0,0,1,2.77-1.39L350,280.27a14,14,0,0,0,12.89-14.89l-6-83.22A14,14,0,0,0,342,169.27Z" style="fill:#19A0CB"></path><path d="M191.23,220.2l9.54-.69.78,10.8,10.42-.75-.78-10.8,9.58-.7L223,248.92l-9.58.69-.9-12.48-10.42.76.9,12.48-9.53.69Z" style="fill:#fff"></path><path d="M165.44,182a14,14,0,0,0-12.88,14.89l6,83.22A14,14,0,0,0,173.47,293l1.47-.11a11.12,11.12,0,0,0,10.12-9l20.11-104.76Z" style="opacity:0.2"></path><path d="M252.93,237.66l-17.18,1.24a5.52,5.52,0,0,0,1.34,3,4,4,0,0,0,3.34,1.22,4.93,4.93,0,0,0,2.36-.8,5.69,5.69,0,0,0,1.39-1.52l8.5.17a12.08,12.08,0,0,1-4.33,5.16q-2.62,1.66-7.74,2a16.21,16.21,0,0,1-7.08-.75,10.32,10.32,0,0,1-4.51-3.67,12.06,12.06,0,0,1-2.13-6.29,11.28,11.28,0,0,1,2.74-8.73q3.12-3.48,9-3.91a16.61,16.61,0,0,1,7.68.9,9.86,9.86,0,0,1,4.53,3.91,15.51,15.51,0,0,1,2,7.07Zm-9-3.48a5.75,5.75,0,0,0-1.59-3.46,4.21,4.21,0,0,0-6.07,1,6,6,0,0,0-.78,3.09Z" style="fill:#fff"></path><path d="M255.58,215.55l8.59-.62,2.23,30.85-8.59.62Z" style="fill:#fff"></path><path d="M269.93,214.51l8.59-.62,2.23,30.85-8.58.62Z" style="fill:#fff"></path><path d="M284.37,233.31a11.21,11.21,0,0,1,2.84-8.68q3.21-3.57,9.09-4,6.7-.48,10.42,3.16a12.21,12.21,0,0,1,.51,16.23q-3.18,3.54-9.22,4a13.34,13.34,0,0,1-8.92-2.1A11,11,0,0,1,284.37,233.31Zm8.59-.64a6.7,6.7,0,0,0,1.53,4.33,4,4,0,0,0,6.08-.42,7,7,0,0,0,.86-4.61,6.59,6.59,0,0,0-1.51-4.24,3.72,3.72,0,0,0-3.07-1.2,3.87,3.87,0,0,0-3,1.66A6.61,6.61,0,0,0,293,232.67Z" style="fill:#fff"></path><path d="M312.77,211.41l9.15-.66.51,7L321.68,232l-5.66.41-2.75-14Zm2,23.28,8.54-.62.55,7.56-8.55.61Z" style="fill:#fff"></path></g></svg>